HIERARCHY
ROOT hip
{
  OFFSET 0 0 0
  CHANNELS 6 Xposition Yposition Zposition Zrotation Yrotation Xrotation
  JOINT abdomen
  {
    OFFSET 0 20.6881 -0.73152
    CHANNELS 3 Zrotation Xrotation Yrotation
    JOINT chest
    {
      OFFSET 0 11.7043 -0.48768
      CHANNELS 3 Zrotation Xrotation Yrotation
      JOINT neck
      {
        OFFSET 0 22.1894 -2.19456
        CHANNELS 3 Zrotation Xrotation Yrotation
        JOINT head
        {
          OFFSET -0.24384 7.07133 1.2192
          CHANNELS 3 Zrotation Xrotation Yrotation
          JOINT leftEye
          {
            OFFSET 4.14528 8.04674 8.04672
            CHANNELS 3 Zrotation Xrotation Yrotation
            End Site
            {
              OFFSET 1 0 0
            }
          }
          JOINT rightEye
          {
            OFFSET -3.6576 8.04674 8.04672
            CHANNELS 3 Zrotation Xrotation Yrotation
            End Site
            {
              OFFSET 1 0 0
            }
          }
        }
      }
      JOINT rCollar
      {
        OFFSET -2.68224 19.2634 -4.8768
        CHANNELS 3 Zrotation Xrotation Yrotation
        JOINT rShldr
        {
          OFFSET -8.77824 -1.95073 1.46304
          CHANNELS 3 Zrotation Xrotation Yrotation
          JOINT rForeArm
          {
            OFFSET -28.1742 -1.7115 0.48768
            CHANNELS 3 Zrotation Xrotation Yrotation
            JOINT rHand
            {
              OFFSET -22.5879 0.773209 7.07136
              CHANNELS 3 Zrotation Xrotation Yrotation
              JOINT rThumb1
              {
                OFFSET -1.2192 -0.487915 3.41376
                CHANNELS 3 Zrotation Xrotation Yrotation
                JOINT rThumb2
                {
                  OFFSET -3.37035 -0.52449 3.41376
                  CHANNELS 3 Zrotation Xrotation Yrotation
                  End Site
                  {
                    OFFSET -1.78271 -1.18214 1.43049
                  }
                }
              }
              JOINT rIndex1
              {
                OFFSET -7.75947 0.938293 5.60832
                CHANNELS 3 Zrotation Xrotation Yrotation
                JOINT rIndex2
                {
                  OFFSET -2.54057 -0.884171 1.56538
                  CHANNELS 3 Zrotation Xrotation Yrotation
                  End Site
                  {
                    OFFSET -1.62519 -0.234802 1.16502
                  }
                }
              }
              JOINT rMid1
              {
                OFFSET -8.24714 1.18213 3.41376
                CHANNELS 3 Zrotation Xrotation Yrotation
                JOINT rMid2
                {
                  OFFSET -3.10165 -0.590103 1.0647
                  CHANNELS 3 Zrotation Xrotation Yrotation
                  End Site
                  {
                    OFFSET -2.48547 -0.328903 0.83742
                  }
                }
              }
              JOINT rRing1
              {
                OFFSET -8.82822 0.546677 1.51678
                CHANNELS 3 Zrotation Xrotation Yrotation
                JOINT rRing2
                {
                  OFFSET -2.60934 -0.819778 -0.0198488
                  CHANNELS 3 Zrotation Xrotation Yrotation
                  End Site
                  {
                    OFFSET -2.33842 -0.294052 0.168128
                  }
                }
              }
              JOINT rPinky1
              {
                OFFSET -8.27202 -0.0477905 -0.4584
                CHANNELS 3 Zrotation Xrotation Yrotation
                JOINT rPinky2
                {
                  OFFSET -1.82734 -0.647385 -0.700984
                  CHANNELS 3 Zrotation Xrotation Yrotation
                  End Site
                  {
                    OFFSET -1.69225 -0.51767 -0.607171
                  }
                }
              }
            }
          }
        }
      }
      JOINT lCollar
      {
        OFFSET 2.68224 19.2634 -4.8768
        CHANNELS 3 Zrotation Xrotation Yrotation
        JOINT lShldr
        {
          OFFSET 8.77824 -1.95073 1.46304
          CHANNELS 3 Zrotation Xrotation Yrotation
          JOINT lForeArm
          {
            OFFSET 28.1742 -1.7115 0.48768
            CHANNELS 3 Zrotation Xrotation Yrotation
            JOINT lHand
            {
              OFFSET 22.5879 0.773209 7.07136
              CHANNELS 3 Zrotation Xrotation Yrotation
              JOINT lThumb1
              {
                OFFSET 1.2192 -0.487915 3.41376
                CHANNELS 3 Zrotation Xrotation Yrotation
                JOINT lThumb2
                {
                  OFFSET 3.37035 -0.52449 3.41376
                  CHANNELS 3 Zrotation Xrotation Yrotation
                  End Site
                  {
                    OFFSET 1.78271 -1.18214 1.43049
                  }
                }
              }
              JOINT lIndex1
              {
                OFFSET 7.75947 0.938293 5.60832
                CHANNELS 3 Zrotation Xrotation Yrotation
                JOINT lIndex2
                {
                  OFFSET 2.54057 -0.884171 1.56538
                  CHANNELS 3 Zrotation Xrotation Yrotation
                  End Site
                  {
                    OFFSET 1.62519 -0.234802 1.16502
                  }
                }
              }
              JOINT lMid1
              {
                OFFSET 8.24714 1.18213 3.41376
                CHANNELS 3 Zrotation Xrotation Yrotation
                JOINT lMid2
                {
                  OFFSET 3.10165 -0.590103 1.0647
                  CHANNELS 3 Zrotation Xrotation Yrotation
                  End Site
                  {
                    OFFSET 2.48547 -0.328903 0.83742
                  }
                }
              }
              JOINT lRing1
              {
                OFFSET 8.82822 0.546677 1.51678
                CHANNELS 3 Zrotation Xrotation Yrotation
                JOINT lRing2
                {
                  OFFSET 2.60934 -0.819778 -0.0198488
                  CHANNELS 3 Zrotation Xrotation Yrotation
                  End Site
                  {
                    OFFSET 2.33842 -0.294052 0.168128
                  }
                }
              }
              JOINT lPinky1
              {
                OFFSET 8.27202 -0.0477905 -0.4584
                CHANNELS 3 Zrotation Xrotation Yrotation
                JOINT lPinky2
                {
                  OFFSET 1.82734 -0.647385 -0.700984
                  CHANNELS 3 Zrotation Xrotation Yrotation
                  End Site
                  {
                    OFFSET 1.69225 -0.51767 -0.607171
                  }
                }
              }
            }
          }
        }
      }
    }
  }
  JOINT rButtock
  {
    OFFSET -8.77824 4.35084 1.2192
    CHANNELS 3 Zrotation Xrotation Yrotation
    JOINT rThigh
    {
      OFFSET 0 -1.70687 -2.19456
      CHANNELS 3 Zrotation Xrotation Yrotation
      JOINT rShin
      {
        OFFSET 0 -36.8199 0.73152
        CHANNELS 3 Zrotation Xrotation Yrotation
        JOINT rFoot
        {
          OFFSET 0.73152 -45.1104 -5.12064
          CHANNELS 3 Zrotation Xrotation Yrotation
          End Site
          {
            OFFSET -1.1221 -3.69964 12.103
          }
        }
      }
    }
  }
  JOINT lButtock
  {
    OFFSET 8.77824 4.35084 1.2192
    CHANNELS 3 Zrotation Xrotation Yrotation
    JOINT lThigh
    {
      OFFSET 0 -1.70687 -2.19456
      CHANNELS 3 Zrotation Xrotation Yrotation
      JOINT lShin
      {
        OFFSET 0 -36.8199 0.73152
        CHANNELS 3 Zrotation Xrotation Yrotation
        JOINT lFoot
        {
          OFFSET -0.73152 -45.1104 -5.12064
          CHANNELS 3 Zrotation Xrotation Yrotation
          End Site
          {
            OFFSET 1.1221 -3.69964 12.103
          }
        }
      }
    }
  }
}
MOTION
Frames:	6
Frame Time:	0.00833333
-22.8747 76.2086 112.3 0.0 0.0 0.0 -0.1124 -0.00252032 -0.00326493 -0.0310774 -0.00419849 -0.00538461 -1.28091e-15 -7.95139e-16 -1.0871e-17 -3.81729e-15 3.18055e-15 -3.26131e-17 -0.0 0.0 0.0 -0.0 0.0 0.0 -5.4803e-16 -4.85314e-18 1.98785e-16 -1.1558e-14 -2.17421e-16 5.96354e-16 -2.28652e-13 6.52014e-14 -6.36111e-15 -2.64207e-12 -9.25591e-14 -4.45278e-14 -6.2306e-12 -5.92099e-14 -6.67917e-14 -1.07666e-11 -1.01778e-13 -1.24042e-13 -6.22435e-12 -5.80451e-14 -7.95139e-14 7.73091 5.47488 0.417314 -6.23195e-12 -5.96354e-14 -6.36111e-14 2.90554 0.965183 0.102902 -6.22951e-12 -5.89397e-14 -6.91771e-14 10.2786 0.731801 0.0259123 -6.23607e-12 -5.68524e-14 -5.725e-14 2.22167 -0.733487 -0.20892 -6.44721e-16 -4.27076e-18 -1.98785e-16 -1.50804e-14 1.67725e-16 -9.93923e-16 -2.31385e-13 -7.17613e-14 -6.36111e-15 -2.64248e-12 5.08143e-14 -2.22639e-14 -6.22978e-12 -5.00765e-14 -6.67917e-14 -1.07543e-11 -9.22361e-14 -1.12115e-13 -6.2319e-12 -5.08889e-14 -5.725e-14 -7.73091 5.47488 -0.417314 -6.23031e-12 -5.01931e-14 -6.67917e-14 -2.90554 0.965183 -0.102902 -6.23579e-12 -4.9895e-14 -6.75868e-14 -10.2786 0.731801 -0.0259123 -6.22196e-12 -4.69132e-14 -7.31528e-14 -2.22167 -0.733487 0.20892 -2.03217e-16 0.0 -3.88251e-19 0.354921 -2.94056 -0.0354299 -0.00588087 -0.22475 -0.0517703 -0.439772 3.16568 0.113073 2.03217e-16 0.0 3.88251e-19 -0.527781 -3.42453 0.0465084 0.004499 0.651847 0.0390537 0.443102 2.77307 -0.105717
-23.0924 71.8384 106.466 -0.7592 5.9404 28.0437 0.294533 -9.98146 0.368106 -0.476568 -1.60395 0.0624175 -1.3856 0.103803 -1.08989 1.61354 4.96797 -2.02385 -0.0 0.0 0.0 -0.0 0.0 0.0 8.09343e-15 9.0754e-14 3.42869e-14 18.911 7.96347 3.134 -28.2059 -25.5683 13.206 0.209741 10.1894 1.35162 -1.03727e-10 -9.646e-11 -2.76323e-11 -1.77028e-10 -1.67043e-10 -4.58796e-11 -1.03723e-10 -9.6458e-11 -2.76451e-11 7.73091 5.47488 0.417314 -1.03728e-10 -9.64592e-11 -2.76336e-11 2.90554 0.965183 0.102902 -1.03725e-10 -9.6459e-11 -2.76371e-11 10.2786 0.731801 0.0259123 -1.03732e-10 -9.64571e-11 -2.7628e-11 2.22167 -0.733487 -0.20892 8.00866e-15 9.07545e-14 3.39572e-14 -19.7151 7.12584 -1.84137 29.0622 -26.2282 -12.7831 -0.118421 7.64613 -1.04035 5.7221e-10 3.96018e-10 -2.89584e-10 9.81341e-10 7.04085e-10 -5.12383e-10 5.72207e-10 3.96017e-10 -2.89572e-10 -7.73091 5.47488 -0.417314 5.7221e-10 3.96016e-10 -2.89582e-10 -2.90554 0.965183 -0.102902 5.72204e-10 3.96017e-10 -2.89583e-10 -10.2786 0.731801 -0.0259123 5.72217e-10 3.96021e-10 -2.89587e-10 -2.22167 -0.733487 0.20892 -2.03217e-16 0.0 -3.88251e-19 -0.105705 -19.9271 -1.0317 0.109498 17.3748 0.228879 -1.29083 -3.30275 -4.10148 2.03217e-16 0.0 3.88251e-19 0.215278 -20.4101 2.14533 -0.0481625 17.9045 -0.214924 0.781536 -3.81086 1.63534
-23.0918 71.8389 106.467 -0.757 5.9377 28.0378 0.874607 -20.5298 0.800013 -0.943039 -3.29447 0.134209 -2.84594 0.212862 -2.24228 3.70651 10.1966 -4.21476 -0.0 0.0 0.0 -0.0 0.0 0.0 1.80273e-14 1.95105e-13 7.09817e-14 37.9191 16.3004 6.65537 -40.3805 -47.2932 37.6355 -0.124794 20.9473 2.93109 -2.59375e-10 -2.11605e-10 -4.69688e-11 -4.43075e-10 -3.64559e-10 -7.58584e-11 -2.59373e-10 -2.11602e-10 -4.69818e-11 7.73091 5.47488 0.417314 -2.59376e-10 -2.11602e-10 -4.6975e-11 2.90554 0.965183 0.102902 -2.59372e-10 -2.11603e-10 -4.69763e-11 10.2786 0.731801 0.0259123 -2.5938e-10 -2.11601e-10 -4.69702e-11 2.22167 -0.733487 -0.20892 1.79539e-14 1.95105e-13 7.07239e-14 -40.0436 14.6334 -3.88658 41.7283 -48.7792 -37.3256 0.0689439 15.7217 -2.20373 1.24423e-09 8.6325e-10 -6.28748e-10 2.13386e-09 1.53444e-09 -1.11241e-09 1.24422e-09 8.63249e-10 -6.28732e-10 -7.73091 5.47488 -0.417314 1.24423e-09 8.63248e-10 -6.28744e-10 -2.90554 0.965183 -0.102902 1.24422e-09 8.63249e-10 -6.28744e-10 -10.2786 0.731801 -0.0259123 1.24424e-09 8.63254e-10 -6.28746e-10 -2.22167 -0.733487 0.20892 -2.03217e-16 0.0 -3.88251e-19 -1.39349 -37.8661 -2.47954 0.0059092 35.9803 0.622947 -3.23508 -10.0446 -8.67722 2.03217e-16 0.0 3.88251e-19 2.69708 -38.2798 5.2093 0.097208 36.1435 -0.572126 1.58062 -10.7549 3.53018
-23.0917 71.84 106.47 -0.7574 5.9353 28.0262 1.54709 -29.9339 1.26258 -1.35616 -4.80342 0.198646 -4.14497 0.310959 -3.26971 5.92215 14.8282 -6.25794 -0.0 0.0 0.0 -0.0 0.0 0.0 2.53763e-14 2.72272e-13 1.02463e-13 53.931 23.5912 10.1691 -31.1756 -52.7531 74.4988 -1.00811 30.4946 4.63283 -2.98719e-10 -2.89262e-10 -8.27632e-11 -5.09551e-10 -5.00925e-10 -1.37391e-10 -2.9872e-10 -2.89258e-10 -8.27761e-11 7.73091 5.47488 0.417314 -2.98721e-10 -2.89258e-10 -8.27735e-11 2.90554 0.965183 0.102902 -2.98716e-10 -2.89259e-10 -8.27729e-11 10.2786 0.731801 0.0259123 -2.98724e-10 -2.89258e-10 -8.27695e-11 2.22167 -0.733487 -0.20892 2.53154e-14 2.72272e-13 1.02269e-13 -57.6882 21.2859 -5.88412 31.04 -54.5003 -76.295 0.537903 22.9068 -3.35842 1.72909e-09 1.18815e-09 -8.68619e-10 2.96553e-09 2.11244e-09 -1.53692e-09 1.72908e-09 1.18815e-09 -8.68601e-10 -7.73091 5.47488 -0.417314 1.72909e-09 1.18815e-09 -8.68613e-10 -2.90554 0.965183 -0.102902 1.72908e-09 1.18815e-09 -8.68613e-10 -10.2786 0.731801 -0.0259123 1.7291e-09 1.18816e-09 -8.68614e-10 -2.22167 -0.733487 0.20892 -2.03217e-16 0.0 -3.88251e-19 -3.8626 -53.8129 -4.81209 -0.446585 52.5677 1.24853 -5.91141 -15.8685 -13.0139 2.03217e-16 0.0 3.88251e-19 7.69138 -53.9931 10.1369 0.545762 52.4048 -1.13375 2.69958 -16.9139 5.33788
-23.0877 71.841 106.472 -0.7409 5.9245 28.0166 2.12632 -36.4828 1.66012 -1.64392 -5.8585 0.244104 -5.04898 0.382075 -3.98469 7.67164 18.0395 -7.75484 -0.0 0.0 0.0 -0.0 0.0 0.0 2.62631e-14 2.81479e-13 1.20911e-13 64.4966 28.5513 12.9351 -26.0303 -46.214 96.0027 -2.04712 37.0847 6.0981 -4.73044e-11 -2.732e-10 -1.59702e-10 -7.70974e-11 -4.84414e-10 -2.77807e-10 -4.73068e-11 -2.73196e-10 -1.59715e-10 7.73091 5.47488 0.417314 -4.73067e-11 -2.73196e-10 -1.59715e-10 2.90554 0.965183 0.102902 -4.73002e-11 -2.73197e-10 -1.59713e-10 10.2786 0.731801 0.0259123 -4.73098e-11 -2.73196e-10 -1.59712e-10 2.22167 -0.733487 -0.20892 2.62177e-14 2.81479e-13 1.20762e-13 -69.6814 25.8878 -7.4206 25.3026 -47.5115 -98.8511 1.06014 27.8957 -4.26669 1.74606e-09 1.15723e-09 -8.60257e-10 2.99511e-09 2.05958e-09 -1.52266e-09 1.74605e-09 1.15723e-09 -8.60238e-10 -7.73091 5.47488 -0.417314 1.74606e-09 1.15723e-09 -8.60251e-10 -2.90554 0.965183 -0.102902 1.74605e-09 1.15723e-09 -8.6025e-10 -10.2786 0.731801 -0.0259123 1.74606e-09 1.15724e-09 -8.60251e-10 -2.22167 -0.733487 0.20892 -2.03217e-16 0.0 -3.88251e-19 -7.43913 -64.8409 -8.15381 -1.26484 64.1146 2.1451 -8.33237 -19.7643 -16.2528 2.03217e-16 0.0 3.88251e-19 14.9484 -64.5963 17.0571 1.29464 63.7256 -1.92412 3.72798 -21.1742 6.70381
-23.0858 71.8539 106.474 -0.7333 5.92 28.0061 2.37921 -39.0372 1.84015 -1.76035 -6.27981 0.262558 -5.40319 0.416438 -4.262 8.40271 19.3164 -8.35842 -0.0 0.0 0.0 -0.0 0.0 0.0 1.65805e-14 1.7016e-13 1.19899e-13 68.5093 30.4709 14.0895 -26.1287 -42.2045 101.581 -2.56364 39.5868 6.7468 8.03909e-10 -8.1699e-11 -3.32585e-10 1.38489e-09 -1.84501e-10 -6.00308e-10 8.03906e-10 -8.16952e-11 -3.32597e-10 7.73091 5.47488 0.417314 8.03906e-10 -8.1695e-11 -3.32598e-10 2.90554 0.965183 0.102902 8.03914e-10 -8.16958e-11 -3.32596e-10 10.2786 0.731801 0.0259123 8.03904e-10 -8.16947e-11 -3.32595e-10 2.22167 -0.733487 -0.20892 1.65618e-14 1.7016e-13 1.1977e-13 -74.3057 27.6856 -8.04633 25.4686 -43.2795 -104.528 1.31339 29.8321 -4.65092 9.22974e-10 4.41512e-10 -3.83517e-10 1.58513e-09 7.94564e-10 -6.81384e-10 9.22968e-10 4.41507e-10 -3.83499e-10 -7.73091 5.47488 -0.417314 9.22973e-10 4.41506e-10 -3.83511e-10 -2.90554 0.965183 -0.102902 9.22967e-10 4.41509e-10 -3.83511e-10 -10.2786 0.731801 -0.0259123 9.22977e-10 4.41515e-10 -3.83512e-10 -2.22167 -0.733487 0.20892 -2.03217e-16 0.0 -3.88251e-19 -9.84427 -69.0949 -10.4361 -1.85699 68.613 2.75846 -9.40562 -21.2415 -17.5733 2.03217e-16 0.0 3.88251e-19 19.6678 -68.5479 21.5868 1.8176 68.1367 -2.45526 4.1915 -22.826 7.27196
